<?xml version="1.0" encoding="UTF-8" standalone="no"?>
<svg
   xmlns:dc="http://purl.org/dc/elements/1.1/"
   xmlns:cc="http://creativecommons.org/ns#"
   xmlns:rdf="http://www.w3.org/1999/02/22-rdf-syntax-ns#"
   xmlns:svg="http://www.w3.org/2000/svg"
   xmlns="http://www.w3.org/2000/svg"
   version="1.1"
   id="svg2"
   viewBox="0 0 424.52899 106"
   height="29.915556mm"
   width="119.81152mm">
  <defs
     id="defs4" />
  <metadata
     id="metadata7">
    <rdf:RDF>
      <cc:Work
         rdf:about="">
        <dc:format>image/svg+xml</dc:format>
        <dc:type
           rdf:resource="http://purl.org/dc/dcmitype/StillImage" />
        <dc:title></dc:title>
      </cc:Work>
    </rdf:RDF>
  </metadata>
  <g
     transform="translate(-149.5,-443.29102)"
     id="layer1">
    <path
       id="path4138"
       d="m 359.64258,443.79102 a 52.5,52.5 0 0 0 -52.30469,48.57031 l -157.33789,0 0,7.85742 3.75,0 0,17.85742 7.32227,0 0,-11.07031 4.82031,0 0,4.28516 4.10742,0 0,-11.07227 137.29883,0 a 52.5,52.5 0 0 0 52.34375,48.57227 52.5,52.5 0 0 0 52.30469,-48.57227 l 118.05273,0 0,-7.85742 -118.01367,0 a 52.5,52.5 0 0 0 -52.34375,-48.57031 z"
       style="fill:#ffffff;fill-opacity:1;fill-rule:evenodd;stroke:#000000;stroke-width:1px;stroke-linecap:butt;stroke-linejoin:miter;stroke-opacity:1" />
    <text
       transform="scale(1.1248802,0.88898355)"
       id="text4886"
       y="548.22418"
       x="150.83611"
       style="font-style:normal;font-weight:normal;font-size:44.99520874px;line-height:125%;font-family:sans-serif;letter-spacing:0px;word-spacing:0px;fill:#000000;fill-opacity:1;stroke:none;stroke-width:1px;stroke-linecap:butt;stroke-linejoin:miter;stroke-opacity:1"
       xml:space="preserve"><tspan
         y="548.22418"
         x="150.83611"
         id="tspan4888">LAND</tspan></text>
    <text
       id="text4890"
       y="533.79077"
       x="170.71428"
       style="font-style:normal;font-weight:normal;font-size:40px;line-height:125%;font-family:sans-serif;letter-spacing:0px;word-spacing:0px;fill:#000000;fill-opacity:1;stroke:none;stroke-width:1px;stroke-linecap:butt;stroke-linejoin:miter;stroke-opacity:1"
       xml:space="preserve"><tspan
         y="533.79077"
         x="170.71428"
         id="tspan4892">LORDS</tspan></text>
    <text
       transform="scale(1.0299108,0.97095787)"
       id="text4894"
       y="498.26135"
       x="400.7345"
       style="font-style:normal;font-weight:normal;font-size:41.19643402px;line-height:125%;font-family:sans-serif;letter-spacing:0px;word-spacing:0px;fill:#000000;fill-opacity:1;stroke:none;stroke-width:1px;stroke-linecap:butt;stroke-linejoin:miter;stroke-opacity:1"
       xml:space="preserve"><tspan
         y="498.26135"
         x="400.7345"
         id="tspan4896">CREA</tspan></text>
    <text
       id="text4898"
       y="534.50507"
       x="413.57144"
       style="font-style:normal;font-weight:normal;font-size:40px;line-height:125%;font-family:sans-serif;letter-spacing:0px;word-spacing:0px;fill:#000000;fill-opacity:1;stroke:none;stroke-width:1px;stroke-linecap:butt;stroke-linejoin:miter;stroke-opacity:1"
       xml:space="preserve"><tspan
         y="534.50507"
         x="413.57144"
         id="tspan4900">TIVES</tspan></text>
    <g
       id="g3401"
       transform="matrix(-0.36412567,0.08940783,-0.12147729,-0.44526522,1217.4835,865.1734)">
      <g
         id="g3415"
         transform="matrix(0.73834,0,0,0.73834,396.27,293.96)">
        <g
           id="g3417"
           transform="matrix(-0.93781,-1.7632,2.1951,-0.80721,5382.6,2391.7)">
          <g
             id="g3419">
            <path
               id="path3421"
               d="m 1279.8,-1217.5 c -26.093,-15.168 21.875,-47.503 35.656,-52.971 -0.441,-0.194 -0.883,-0.388 -1.324,-0.583 -10.195,19.215 -22.55,37.342 -37.882,52.839 -0.837,0.846 1.046,1.028 1.592,0.477 15.42,-15.587 27.864,-33.835 38.118,-53.161 0.431,-0.811 -0.938,-0.736 -1.324,-0.583 -14.322,5.682 -63.749,39.098 -36.344,55.029 0.662,0.385 2.398,-0.529 1.508,-1.047 z" />
          </g>
        </g>
        <g
           id="g3423"
           transform="matrix(0.97819,0.14966,-0.22676,0.98761,295.34,-206.95)">
          <g
             id="g3425"
             transform="matrix(-1.3015,-1.598,2.001,-1.0985,5611,1822.4)">
            <g
               id="g3427">
              <path
                 id="path3429"
                 d="m 1275.9,-1218.5 c 27.465,-2.56 29.377,-33.542 38.1,-53.649 0.258,-0.593 -1.66,-0.375 -1.93,0.247 -8.186,18.868 -9.962,49.933 -35.9,52.351 -0.939,0.087 -1.611,1.176 -0.27,1.051 z" />
            </g>
          </g>
          <g
             id="g3431"
             transform="matrix(-1.3015,-1.598,2.001,-1.0985,5611,1822.4)">
            <g
               id="g3433">
              <path
                 id="path3435"
                 d="m 1294.8,-1227.7 c 3.973,-4.173 6.886,-8.877 9.114,-14.179 0.448,-1.067 -1.282,-0.895 -1.739,-0.423 -4.943,5.108 -8.871,10.87 -12.114,17.179 -0.528,1.029 1.297,0.876 1.739,0.423 6.896,-7.061 12.05,-15.217 16.114,-24.179 0.487,-1.076 -1.433,-0.937 -1.854,-0.244 -6.014,9.896 -13.115,18.887 -21.719,26.662 -1.005,0.908 0.509,1.446 1.291,0.921 10.664,-7.157 15.07,-18.731 19.281,-30.338 0.373,-1.029 -1.289,-1.005 -1.739,-0.423 -7.139,9.229 -13.861,18.771 -21,28 0.542,0.2 1.083,0.401 1.625,0.602 9.084,-14.042 19.146,-27.439 27.114,-42.179 0.518,-0.959 -1.302,-0.979 -1.739,-0.423 -11.186,14.194 -22.901,27.987 -33,43 -0.633,0.94 0.858,1.326 1.458,0.761 14.478,-13.646 25.748,-30.431 34.281,-48.338 0.492,-1.033 -1.293,-0.905 -1.739,-0.423 -12.318,13.312 -25.025,26.343 -34.114,42.179 -0.535,0.933 1.3,0.99 1.739,0.423 10.25,-13.234 21.65,-25.659 30.114,-40.179 0.508,-0.872 -1.132,-0.982 -1.572,-0.583 -10.552,9.587 -20.12,20.156 -29.167,31.16 -0.794,0.965 1.039,1.267 1.625,0.602 6.721,-7.625 13.825,-14.911 20,-23 0.726,-0.951 -0.857,-1.209 -1.458,-0.761 -11.179,8.35 -19.688,19.5 -27.167,31.16 0.542,0.2 1.083,0.401 1.625,0.602 5.135,-8.052 11.288,-15.227 18,-22 -0.58,-0.141 -1.159,-0.282 -1.739,-0.423 -3.858,6.759 -7.704,13.524 -10,21 -0.334,1.087 1.593,1.093 1.854,0.244 2.296,-7.476 6.142,-14.241 10,-21 0.57,-1 -1.3,-0.866 -1.739,-0.423 -6.712,6.773 -12.865,13.947 -18,22 -0.666,1.044 1.129,1.375 1.625,0.602 7.395,-11.528 15.776,-22.581 26.833,-30.84 -0.485,-0.254 -0.972,-0.507 -1.458,-0.761 -6.175,8.089 -13.279,15.375 -20,23 0.542,0.2 1.083,0.401 1.625,0.602 8.948,-10.883 18.397,-21.358 28.833,-30.84 -0.523,-0.194 -1.048,-0.388 -1.572,-0.583 -8.39,14.394 -19.726,26.703 -29.886,39.821 0.58,0.141 1.159,0.282 1.739,0.423 9.014,-15.708 21.671,-28.62 33.886,-41.821 -0.58,-0.141 -1.159,-0.282 -1.739,-0.423 -8.397,17.623 -19.466,34.228 -33.719,47.662 0.485,0.254 0.972,0.507 1.458,0.761 10.1,-15.013 21.814,-28.806 33,-43 -0.58,-0.141 -1.159,-0.282 -1.739,-0.423 -7.899,14.614 -17.88,27.899 -26.886,41.821 -0.68,1.051 1.072,1.316 1.625,0.602 7.139,-9.229 13.861,-18.771 21,-28 -0.58,-0.141 -1.159,-0.282 -1.739,-0.423 -4.1,11.301 -8.302,22.671 -18.719,29.662 0.431,0.307 0.86,0.614 1.291,0.921 8.829,-7.978 16.109,-17.184 22.281,-27.338 -0.618,-0.082 -1.235,-0.163 -1.854,-0.244 -4.005,8.832 -9.095,16.867 -15.886,23.821 0.58,0.141 1.159,0.282 1.739,0.423 3.184,-6.193 7.042,-11.815 11.886,-16.821 -0.58,-0.141 -1.159,-0.282 -1.739,-0.423 -2.167,5.156 -5.023,9.764 -8.886,13.821 -0.843,0.883 1.01,1.245 1.626,0.598 z" />
            </g>
          </g>
        </g>
      </g>
    </g>
    <path
       style="fill:none;stroke:#000000;stroke-width:1;stroke-linecap:butt;stroke-linejoin:miter;stroke-miterlimit:4;stroke-dasharray:none;stroke-opacity:1"
       d="m 372.42248,485.10599 c -1.91871,0 -3.6134,0.71848 -5.08358,2.15317 -2.81482,2.74707 -2.93357,7.10358 -0.35873,9.98773 -0.0664,-0.0263 10.56691,10.35065 10.59368,10.32483 -0.0267,0.0258 10.60707,-10.35113 10.5803,-10.32483 2.57501,-2.88415 2.45594,-7.24066 -0.35864,-9.98773 -2.81269,-2.74489 -7.27318,-2.99541 -10.22836,-0.48921 -1.41159,-1.20038 -3.38935,-1.66415 -5.14477,-1.66415 z"
       id="rect2820" />
  </g>
</svg>
